<?xml version="1.0" encoding="UTF-8" standalone="no"?>
<!DOCTYPE svg PUBLIC "-//W3C//DTD SVG 1.1//EN" "http://www.w3.org/Graphics/SVG/1.1/DTD/svg11.dtd">
<svg width="100%" height="100%" viewBox="0 0 2481 3508" version="1.1" xmlns="http://www.w3.org/2000/svg" xmlns:xlink="http://www.w3.org/1999/xlink" xml:space="preserve" xmlns:serif="http://www.serif.com/" style="fill-rule:evenodd;clip-rule:evenodd;stroke-linecap:round;stroke-linejoin:round;stroke-miterlimit:1.5;">
    <g transform="matrix(6.45444e-05,1.49108,-1.71786,7.43606e-05,3299.01,-305.791)">
        <path d="M440.897,1492.46C433.039,1176.01 398.147,532.308 1215.82,527.215C2039.26,522.086 2121.37,972.882 2087.29,1495.19" style="fill:none;stroke:rgb(119,108,216);stroke-width:49.22px;"/>
    </g>
    <g transform="matrix(4.32869e-05,1,-1,4.32869e-05,2943.72,-152.069)">
        <g transform="matrix(0.0519224,-0.998651,0.998651,0.0519224,-1246,2050.57)">
            <text x="456.977px" y="1681.52px" style="font-family:'Arial-ItalicMT', 'Arial', sans-serif;font-style:italic;font-size:125px;fill:rgb(119,108,216);">P</text>
        </g>
        <g transform="matrix(0.0810267,-0.996712,0.996712,0.0810267,-1169.19,1928.63)">
            <text x="461.294px" y="1598.37px" style="font-family:'Arial-ItalicMT', 'Arial', sans-serif;font-style:italic;font-size:125px;fill:rgb(119,108,216);">a</text>
        </g>
        <g transform="matrix(0.109326,-0.994006,0.994006,0.109326,-1103.99,1826.11)">
            <text x="466.988px" y="1529.09px" style="font-family:'Arial-ItalicMT', 'Arial', sans-serif;font-style:italic;font-size:125px;fill:rgb(119,108,216);">r</text>
        </g>
        <g transform="matrix(0.134417,-0.990925,0.990925,0.134417,-1066.17,1754.6)">
            <text x="471.251px" y="1487.58px" style="font-family:'Arial-ItalicMT', 'Arial', sans-serif;font-style:italic;font-size:125px;fill:rgb(119,108,216);">e</text>
        </g>
        <g transform="matrix(0.172252,-0.985053,0.985053,0.172252,-999.71,1647.66)">
            <text x="480.533px" y="1418.67px" style="font-family:'Arial-ItalicMT', 'Arial', sans-serif;font-style:italic;font-size:125px;fill:rgb(119,108,216);">n</text>
        </g>
        <g transform="matrix(0.20793,-0.978144,0.978144,0.20793,-930.443,1551.37)">
            <text x="492.691px" y="1350.2px" style="font-family:'Arial-ItalicMT', 'Arial', sans-serif;font-style:italic;font-size:125px;fill:rgb(119,108,216);">t</text>
        </g>
        <g transform="matrix(0.263151,-0.964755,0.964755,0.263151,-863.44,1434.45)">
            <text x="507.339px" y="1282.47px" style="font-family:'Arial-ItalicMT', 'Arial', sans-serif;font-style:italic;font-size:125px;fill:rgb(119,108,216);">L</text>
        </g>
    </g>
    <g transform="matrix(6.45444e-05,1.49108,-1.71786,7.43606e-05,3260.3,-242.058)">
        <g transform="matrix(2.90305e-05,-0.582121,0.670653,2.51982e-05,162.242,1897.9)">
            <path d="M1925.26,2542.24L1824.52,2544.06L1883.51,2462.37L1925.26,2542.24Z" style="fill:rgb(151,57,117);"/>
            <path d="M1005.24,417.854C1016.64,418.151 1028.8,418.532 1041.64,419.011L1040.32,454.403C1027.62,453.929 1015.6,453.553 1004.32,453.259C991.286,452.92 979.253,452.692 968.347,452.552L968.8,417.138C979.848,417.28 992.038,417.511 1005.24,417.854ZM1114.35,422.489C1126.13,423.174 1138.25,423.936 1150.66,424.783L1148.25,460.118C1135.96,459.279 1123.96,458.524 1112.29,457.846C1099.91,457.127 1087.9,456.494 1076.31,455.939L1078,420.563C1089.71,421.124 1101.84,421.763 1114.35,422.489ZM1223.23,430.484C1235.15,431.546 1247.24,432.685 1259.48,433.908L1255.95,469.149C1243.85,467.939 1231.88,466.812 1220.09,465.761C1207.93,464.679 1195.96,463.678 1184.19,462.754L1186.96,427.446C1198.85,428.38 1210.95,429.39 1223.23,430.484ZM1331.86,441.98C1343.84,443.458 1355.89,445.019 1367.99,446.668L1363.21,481.761C1351.26,480.132 1339.35,478.59 1327.52,477.13C1315.52,475.648 1303.59,474.25 1291.77,472.933L1295.69,437.734C1307.65,439.067 1319.72,440.481 1331.86,441.98ZM1440.1,457.487C1452.09,459.461 1464.09,461.526 1476.06,463.688L1469.77,498.541C1457.97,496.412 1446.16,494.377 1434.35,492.434C1422.5,490.483 1410.65,488.624 1398.83,486.852L1404.08,451.827C1416.07,453.624 1428.08,455.509 1440.1,457.487ZM1547.71,477.892C1559.67,480.489 1571.57,483.194 1583.37,486.009L1575.15,520.46C1563.58,517.699 1551.92,515.048 1540.2,512.502C1528.54,509.971 1516.82,507.543 1505.06,505.214L1511.93,470.472C1523.91,472.843 1535.84,475.315 1547.71,477.892ZM1654.23,504.641C1666.1,508.078 1677.81,511.646 1689.35,515.349L1678.53,549.072C1667.31,545.471 1655.91,542.002 1644.38,538.66C1633.02,535.369 1621.52,532.202 1609.9,529.153L1618.89,494.897C1630.8,498.022 1642.59,501.269 1654.23,504.641ZM1758.67,540.189C1770.11,544.755 1781.44,549.527 1792.67,554.515L1778.29,586.88C1767.48,582.076 1756.56,577.479 1745.54,573.081C1734.55,568.692 1723.46,564.501 1712.28,560.501L1724.2,527.153C1735.79,531.299 1747.28,535.641 1758.67,540.189ZM1858.9,587.226C1869.71,593.143 1880.4,599.292 1890.95,605.682L1872.61,635.977C1862.5,629.856 1852.26,623.965 1841.9,618.297C1831.53,612.624 1821.04,607.174 1810.43,601.94L1826.11,570.18C1837.16,575.635 1848.09,581.314 1858.9,587.226ZM2036.79,719.241C2045.51,727.901 2054.06,736.823 2062.44,746.013L2036.28,769.882C2028.29,761.122 2020.13,752.618 2011.83,744.363C2003.42,736.014 1994.87,727.919 1986.15,720.072L2009.86,693.758C2019,701.99 2027.98,710.482 2036.79,719.241ZM2109.67,803.118C2117.01,812.911 2124.18,822.961 2131.18,833.274L2101.87,853.16C2095.19,843.308 2088.34,833.709 2081.33,824.354C2074.2,814.841 2066.91,805.581 2059.46,796.569L2086.75,774C2094.56,783.444 2102.2,793.148 2109.67,803.118ZM2169.91,896.317C2175.82,906.971 2181.57,917.867 2187.15,929.011L2155.48,944.868C2150.12,934.176 2144.61,923.722 2138.94,913.5C2133.15,903.06 2127.19,892.862 2121.07,882.903L2151.26,864.373C2157.64,874.771 2163.86,885.417 2169.91,896.317ZM2217.51,996.286C2222.07,1007.53 2226.47,1019 2230.72,1030.7L2197.43,1042.79C2193.33,1031.5 2189.09,1020.44 2184.69,1009.59C2180.19,998.475 2175.53,987.589 2170.72,976.924L2203,962.363C2208,973.44 2212.84,984.746 2217.51,996.286ZM2253.44,1100.72C2256.78,1112.35 2259.99,1124.18 2263.05,1136.21L2228.73,1144.94C2225.76,1133.27 2222.65,1121.8 2219.4,1110.52C2216.07,1098.96 2212.6,1087.61 2208.99,1076.45L2242.68,1065.54C2246.41,1077.06 2250,1088.78 2253.44,1100.72ZM2279.07,1207.87C2281.37,1219.72 2283.54,1231.75 2285.58,1243.97L2250.65,1249.8C2248.66,1237.9 2246.54,1226.17 2244.3,1214.62C2242,1202.78 2239.57,1191.13 2237.01,1179.65L2271.58,1171.94C2274.21,1183.73 2276.71,1195.71 2279.07,1207.87ZM2295.87,1316.52C2297.28,1328.49 2298.57,1340.62 2299.74,1352.91L2264.49,1356.28C2263.34,1344.25 2262.08,1332.37 2260.7,1320.66C2259.28,1308.66 2257.75,1296.83 2256.1,1285.16L2291.16,1280.19C2292.86,1292.13 2294.42,1304.24 2295.87,1316.52ZM2305.18,1425.86C2305.83,1437.88 2306.38,1450.05 2306.81,1462.36L2271.42,1463.62C2270.99,1451.53 2270.45,1439.58 2269.81,1427.78C2269.15,1415.7 2268.39,1403.77 2267.51,1391.99L2302.83,1389.37C2303.72,1401.38 2304.51,1413.54 2305.18,1425.86ZM2308.12,1535.39C2308.14,1547.42 2308.05,1559.59 2307.87,1571.88L2272.45,1571.35C2272.64,1559.24 2272.72,1547.27 2272.71,1535.42C2272.7,1523.32 2272.59,1511.35 2272.38,1499.51L2307.79,1498.88C2308,1510.91 2308.11,1523.08 2308.12,1535.39ZM2270.75,1643.55C2271.14,1629.11 2271.29,1618.27 2271.5,1611.66C2271.55,1610.2 2271.59,1608.74 2271.64,1607.29L2307.04,1608.36C2306.99,1609.83 2306.95,1611.31 2306.9,1612.79C2306.69,1619.37 2306.54,1630.15 2306.16,1644.5C2305.88,1654.91 2305.47,1667.16 2304.82,1681.04L2269.44,1679.38C2270.08,1665.78 2270.48,1653.75 2270.75,1643.55ZM2264.55,1750.87C2265.69,1738.33 2266.62,1726.4 2267.39,1715.16L2302.72,1717.57C2301.93,1729.06 2300.98,1741.24 2299.83,1754.06C2298.78,1765.7 2297.55,1777.86 2296.13,1790.48L2260.94,1786.51C2262.33,1774.16 2263.53,1762.27 2264.55,1750.87ZM2251.28,1857.45C2253.21,1845.38 2254.95,1833.56 2256.52,1822.04L2291.61,1826.81C2290.01,1838.6 2288.23,1850.69 2286.25,1863.05C2284.36,1874.86 2282.29,1886.91 2280.02,1899.16L2245.2,1892.71C2247.41,1880.75 2249.43,1868.98 2251.28,1857.45ZM2230.39,1962.66C2233.2,1950.91 2235.81,1939.28 2238.24,1927.79L2272.89,1935.12C2270.4,1946.91 2267.72,1958.85 2264.83,1970.9C2262.01,1982.66 2259.01,1994.53 2255.79,2006.48L2221.59,1997.28C2224.72,1985.65 2227.65,1974.1 2230.39,1962.66ZM2201.04,2065.61C2204.84,2054.24 2208.43,2042.9 2211.82,2031.61L2245.74,2041.81C2242.24,2053.44 2238.55,2065.13 2234.63,2076.84C2230.77,2088.39 2226.7,2099.96 2222.41,2111.53L2189.2,2099.23C2193.36,2088.01 2197.3,2076.8 2201.04,2065.61ZM2162.19,2165.07C2167.11,2154.22 2171.79,2143.32 2176.27,2132.4L2209.04,2145.84C2204.4,2157.14 2199.55,2168.43 2194.46,2179.68C2189.41,2190.83 2184.14,2201.94 2178.62,2212.99L2146.93,2197.17C2152.25,2186.53 2157.33,2175.82 2162.19,2165.07ZM2051.64,2346.06C2059.12,2336.9 2066.35,2327.59 2073.32,2318.14L2101.81,2339.19C2094.49,2349.09 2086.92,2358.85 2079.07,2368.46C2071.28,2378 2063.22,2387.39 2054.88,2396.6L2028.62,2372.84C2036.55,2364.07 2044.22,2355.14 2051.64,2346.06ZM1978.63,2422.58C1987.45,2414.7 1995.99,2406.63 2004.28,2398.38L2029.26,2423.48C2020.53,2432.17 2011.53,2440.68 2002.24,2448.98C1993.05,2457.19 1983.6,2465.2 1973.85,2472.99L1951.73,2445.34C1960.96,2437.95 1969.93,2430.36 1978.63,2422.58ZM1894.38,2486.23C1904.39,2479.89 1914.14,2473.34 1923.62,2466.58L1944.18,2495.42C1934.17,2502.55 1923.88,2509.47 1913.31,2516.16C1908.1,2519.46 1902.81,2522.7 1897.46,2525.88L1879.37,2495.43C1884.44,2492.42 1889.44,2489.35 1894.38,2486.23ZM914.72,452.669L913.795,417.264C918.801,417.133 924.983,417.036 932.248,416.989L932.476,452.405C925.485,452.45 919.536,452.543 914.72,452.669ZM1902.47,654.996L1922.17,625.566C1932.41,632.423 1942.51,639.526 1952.46,646.884L1931.4,675.359C1921.9,668.331 1912.25,661.545 1902.47,654.996ZM1931.4,675.36L1952.46,646.885C1962.37,654.211 1972.12,661.788 1981.72,669.626L1959.32,697.06C1950.16,689.581 1940.85,682.351 1931.4,675.36ZM2130.45,2228.61L2161.48,2245.69C2155.56,2256.44 2149.4,2267.12 2142.99,2277.69C2136.62,2288.2 2129.99,2298.6 2123.11,2308.89L2093.68,2289.19C2100.26,2279.35 2106.61,2269.38 2112.71,2259.32C2118.86,2249.18 2124.77,2238.93 2130.45,2228.61Z" style="fill:rgb(151,57,117);"/>
        </g>
    </g>
    <g transform="matrix(1,0,0,1,0,140)">
        <g transform="matrix(1,-0,-0,1,0,-140)">
            <path d="M783.215,2245.49L772.325,2145.32L858.994,2196.71L783.215,2245.49Z" style="fill:rgb(58,51,117);"/>
            <path d="M1486.96,2433.87C1499.82,2435.3 1512.87,2436.68 1526.13,2438L1522.62,2473.24C1509.23,2471.91 1496.03,2470.51 1483.04,2469.07C1469.65,2467.57 1456.47,2466.02 1443.5,2464.41L1447.87,2429.26C1460.69,2430.86 1473.72,2432.39 1486.96,2433.87ZM1254.01,2397.6C1266.57,2400.23 1279.39,2402.78 1292.5,2405.26L1285.92,2440.06C1272.59,2437.54 1259.53,2434.94 1246.75,2432.26C1233.44,2429.48 1220.43,2426.6 1207.71,2423.65L1215.73,2389.15C1228.2,2392.05 1240.96,2394.87 1254.01,2397.6ZM1139.98,2369.54C1152.22,2373.07 1164.79,2376.49 1177.7,2379.83L1168.84,2414.12C1155.61,2410.7 1142.73,2407.19 1130.18,2403.58C1117.01,2399.79 1104.21,2395.89 1091.78,2391.89L1102.63,2358.18C1114.72,2362.07 1127.17,2365.86 1139.98,2369.54ZM1029.46,2331.68C1041.14,2336.44 1053.23,2341.08 1065.75,2345.6L1053.72,2378.91C1040.74,2374.22 1028.2,2369.41 1016.09,2364.48C1003.25,2359.24 990.899,2353.87 979.024,2348.36L993.919,2316.23C1005.31,2321.51 1017.15,2326.66 1029.46,2331.68ZM925.965,2279.96C936.53,2286.49 947.646,2292.85 959.329,2299.07L942.7,2330.34C930.326,2323.76 918.552,2317.01 907.363,2310.1C895.364,2302.7 884.036,2295.1 873.356,2287.34L894.188,2258.7C904.167,2265.95 914.754,2273.04 925.965,2279.96ZM837.367,2208.8C845.662,2217.74 854.687,2226.49 864.463,2235.03L841.155,2261.7C830.418,2252.32 820.509,2242.7 811.398,2232.88C806.609,2227.71 802.039,2222.49 797.685,2217.21L825.013,2194.68C828.935,2199.44 833.053,2204.14 837.367,2208.8ZM1702.98,2451.51L1701.01,2486.87C1694.36,2486.5 1687.75,2486.12 1681.18,2485.72L1683.29,2450.37C1689.81,2450.76 1696.37,2451.14 1702.98,2451.51ZM1643.94,2447.85L1641.51,2483.18C1628.12,2482.26 1614.9,2481.29 1601.86,2480.26L1604.62,2444.96C1617.56,2445.97 1630.66,2446.93 1643.94,2447.85ZM1604.62,2444.96L1601.86,2480.26C1588.47,2479.22 1575.26,2478.12 1562.23,2476.96L1565.35,2441.68C1578.26,2442.83 1591.35,2443.92 1604.62,2444.96ZM1408.86,2424.14L1404.01,2459.23C1390.63,2457.38 1377.48,2455.46 1364.57,2453.48L1369.95,2418.47C1382.69,2420.43 1395.66,2422.32 1408.86,2424.14ZM1369.94,2418.47L1364.57,2453.48C1351.2,2451.42 1338.08,2449.3 1325.2,2447.11L1331.15,2412.19C1343.84,2414.35 1356.77,2416.45 1369.94,2418.47Z" style="fill:rgb(58,51,117);"/>
        </g>
    </g>
    <g transform="matrix(6.98344e-05,1.61329,-0.974728,4.21929e-05,2238.4,-150.798)">
        <path d="M409.328,1541.89C394.365,960.431 744.874,674.264 932.012,987.813C963.717,1040.93 1622.75,2587.39 1679.83,516.421C1681.27,464.368 1767.41,926.432 1736.14,1545.35" style="fill:none;stroke:rgb(189,105,161);stroke-width:59.4px;"/>
    </g>
    <g transform="matrix(0.0552457,0.998473,-0.998473,0.0552457,2031.61,152.037)">
        <g transform="matrix(0.493541,-0.869723,0.869723,0.493541,-713.999,973.181)">
            <text x="478.603px" y="1099.65px" style="font-family:'Arial-ItalicMT', 'Arial', sans-serif;font-style:italic;font-size:125px;fill:rgb(189,105,161);">P</text>
        </g>
        <g transform="matrix(0.603155,-0.797624,0.797624,0.603155,-612.978,822.124)">
            <text x="519.71px" y="1027.08px" style="font-family:'Arial-ItalicMT', 'Arial', sans-serif;font-style:italic;font-size:125px;fill:rgb(189,105,161);">a</text>
        </g>
        <g transform="matrix(0.705952,-0.70826,0.70826,0.705952,-523.062,683.683)">
            <text x="561.846px" y="971.778px" style="font-family:'Arial-ItalicMT', 'Arial', sans-serif;font-style:italic;font-size:125px;fill:rgb(189,105,161);">r</text>
        </g>
        <g transform="matrix(0.790396,-0.612597,0.612597,0.790396,-452.754,558.87)">
            <text x="590.309px" y="941.052px" style="font-family:'Arial-ItalicMT', 'Arial', sans-serif;font-style:italic;font-size:125px;fill:rgb(189,105,161);">e</text>
        </g>
        <g transform="matrix(0.895288,-0.445488,0.445488,0.895288,-332.487,381.526)">
            <text x="645.34px" y="898.031px" style="font-family:'Arial-ItalicMT', 'Arial', sans-serif;font-style:italic;font-size:125px;fill:rgb(189,105,161);">n</text>
        </g>
        <g transform="matrix(0.960115,-0.279607,0.279607,0.960115,-214.432,232.594)">
            <text x="708.054px" y="867.906px" style="font-family:'Arial-ItalicMT', 'Arial', sans-serif;font-style:italic;font-size:125px;fill:rgb(189,105,161);">t</text>
        </g>
        <g transform="matrix(0.999968,-0.00804077,0.00804077,0.999968,-6.79522,6.26197)">
            <text x="775.368px" y="848.213px" style="font-family:'Arial-ItalicMT', 'Arial', sans-serif;font-style:italic;font-size:125px;fill:rgb(189,105,161);">H</text>
        </g>
    </g>
    <g transform="matrix(1,0,0,1,-398.105,-39.1322)">
        <text x="1239.25px" y="274.827px" style="font-family:'Arial-BoldMT', 'Arial', sans-serif;font-weight:700;font-size:200px;fill:rgb(151,57,117);">O</text>
        <g transform="matrix(125,0,0,125,1485.09,274.827)">
        </g>
        <text x="1394.82px" y="274.827px" style="font-family:'Arial-BoldMT', 'Arial', sans-serif;font-weight:700;font-size:125px;fill:rgb(151,57,117);">H</text>
    </g>
    <g transform="matrix(1,0,0,1,529.564,2630.25)">
        <text x="1239.25px" y="274.827px" style="font-family:'Arial-BoldMT', 'Arial', sans-serif;font-weight:700;font-size:200px;fill:rgb(58,51,117);">O</text>
        <g transform="matrix(125,0,0,125,1471.17,274.827)">
        </g>
        <text x="1394.82px" y="274.827px" style="font-family:'Arial-BoldMT', 'Arial', sans-serif;font-weight:700;font-size:125px;fill:rgb(58,51,117);">L</text>
    </g>
    <g id="lightning-symbol.svg" transform="matrix(7.19526,-4.92211,3.69695,5.4043,933.172,1263.12)">
        <g transform="matrix(1,0,0,1,-32,-32)">
            <g transform="matrix(0.838942,0,0,2,10.1657,-62)">
                <path d="M24.5,31.9L19.6,48.1L31.915,46.444L27.9,62L44.4,41.8L32.5,41.8L35.4,31.9L24.5,31.9Z" style="fill:rgb(255,206,49);fill-rule:nonzero;"/>
            </g>
        </g>
    </g>
    <g id="lightning-symbol.svg1" serif:id="lightning-symbol.svg" transform="matrix(5.43777,-6.81393,5.11788,4.08426,474.639,1737.85)">
        <g transform="matrix(1,0,0,1,-32,-32)">
            <g transform="matrix(0.838942,0,0,2,10.1657,-62)">
                <path d="M24.5,31.9L19.6,48.1L31.915,46.444L27.9,62L44.4,41.8L32.5,41.8L35.4,31.9L24.5,31.9Z" style="fill:rgb(255,206,49);fill-rule:nonzero;"/>
            </g>
        </g>
    </g>
    <g id="lightning-symbol.svg2" serif:id="lightning-symbol.svg" transform="matrix(6.87201,5.36418,-4.02899,5.1615,1608.62,869.713)">
        <g transform="matrix(1,0,0,1,-32,-32)">
            <g transform="matrix(0.838942,0,0,2,10.1657,-62)">
                <path d="M24.5,31.9L19.6,48.1L31.915,46.444L27.9,62L44.4,41.8L32.5,41.8L35.4,31.9L24.5,31.9Z" style="fill:rgb(255,206,49);fill-rule:nonzero;"/>
            </g>
        </g>
    </g>
    <g transform="matrix(1,0,0,1,-133.681,227.792)">
        <g transform="matrix(200,0,0,200,1640.22,1458.86)">
        </g>
        <text x="1256.82px" y="1458.86px" style="font-family:'Arial-BoldMT', 'Arial', sans-serif;font-weight:700;font-size:200px;fill:rgb(255,23,0);">C&gt;T</text>
    </g>
    <g transform="matrix(1,0,0,1,210.838,-217.259)">
        <g transform="matrix(200,0,0,200,1640.22,1458.86)">
        </g>
        <text x="1256.82px" y="1458.86px" style="font-family:'Arial-BoldMT', 'Arial', sans-serif;font-weight:700;font-size:200px;fill:rgb(255,23,0);">C&gt;T</text>
    </g>
    <g transform="matrix(1,0,0,1,-403.035,560.799)">
        <g transform="matrix(200,0,0,200,1673.62,1458.86)">
        </g>
        <text x="1256.82px" y="1458.86px" style="font-family:'Arial-BoldMT', 'Arial', sans-serif;font-weight:700;font-size:200px;fill:rgb(255,23,0);">A&gt;G</text>
    </g>
</svg>
