<?xml version="1.0" encoding="UTF-8" standalone="no"?>
<!DOCTYPE svg PUBLIC "-//W3C//DTD SVG 1.1//EN" "http://www.w3.org/Graphics/SVG/1.1/DTD/svg11.dtd">
<svg width="100%" height="100%" viewBox="0 0 2481 3508" version="1.1" xmlns="http://www.w3.org/2000/svg" xmlns:xlink="http://www.w3.org/1999/xlink" xml:space="preserve" xmlns:serif="http://www.serif.com/" style="fill-rule:evenodd;clip-rule:evenodd;stroke-linecap:round;stroke-linejoin:round;stroke-miterlimit:1.5;">
    <g>
        <g transform="matrix(6.45444e-05,1.49108,-1.71786,7.43606e-05,3299.01,-445.791)">
            <path d="M457.837,1389.39C445.763,1056.45 445.201,526.018 1236.08,533.068C2129.64,541.033 2067.65,1114.78 2050,1389.45" style="fill:none;stroke:rgb(119,108,216);stroke-width:22.02px;"/>
        </g>
        <g transform="matrix(4.32869e-05,1,-1,4.32869e-05,2934.76,-262.526)">
            <g transform="matrix(0.0519224,-0.998651,0.998651,0.0519224,-1246,2050.57)">
                <text x="456.977px" y="1681.52px" style="font-family:'Arial-ItalicMT', 'Arial', sans-serif;font-style:italic;font-size:125px;fill:rgb(119,108,216);">P</text>
            </g>
            <g transform="matrix(0.0810267,-0.996712,0.996712,0.0810267,-1169.19,1928.63)">
                <text x="461.294px" y="1598.37px" style="font-family:'Arial-ItalicMT', 'Arial', sans-serif;font-style:italic;font-size:125px;fill:rgb(119,108,216);">a</text>
            </g>
            <g transform="matrix(0.109326,-0.994006,0.994006,0.109326,-1103.99,1826.11)">
                <text x="466.988px" y="1529.09px" style="font-family:'Arial-ItalicMT', 'Arial', sans-serif;font-style:italic;font-size:125px;fill:rgb(119,108,216);">r</text>
            </g>
            <g transform="matrix(0.134417,-0.990925,0.990925,0.134417,-1066.17,1754.6)">
                <text x="471.251px" y="1487.58px" style="font-family:'Arial-ItalicMT', 'Arial', sans-serif;font-style:italic;font-size:125px;fill:rgb(119,108,216);">e</text>
            </g>
            <g transform="matrix(0.172252,-0.985053,0.985053,0.172252,-999.71,1647.66)">
                <text x="480.533px" y="1418.67px" style="font-family:'Arial-ItalicMT', 'Arial', sans-serif;font-style:italic;font-size:125px;fill:rgb(119,108,216);">n</text>
            </g>
            <g transform="matrix(0.20793,-0.978144,0.978144,0.20793,-930.443,1551.37)">
                <text x="492.691px" y="1350.2px" style="font-family:'Arial-ItalicMT', 'Arial', sans-serif;font-style:italic;font-size:125px;fill:rgb(119,108,216);">t</text>
            </g>
            <g transform="matrix(0.263151,-0.964755,0.964755,0.263151,-863.44,1434.45)">
                <text x="507.339px" y="1282.47px" style="font-family:'Arial-ItalicMT', 'Arial', sans-serif;font-style:italic;font-size:125px;fill:rgb(119,108,216);">L</text>
            </g>
        </g>
        <g transform="matrix(6.45444e-05,1.49108,-1.71786,7.43606e-05,3260.3,-382.058)">
            <g transform="matrix(2.90305e-05,-0.582121,0.670653,2.51982e-05,256.134,1897.9)">
                <path d="M1911.38,2437.97L1810.64,2440.1L1869.38,2358.24L1911.38,2437.97Z" style="fill:rgb(151,57,117);"/>
                <path d="M1001.21,280.81C1012.52,280.6 1024.58,280.42 1037.32,280.293L1037.67,315.708C1025.04,315.834 1013.08,316.012 1001.87,316.221C988.893,316.462 976.915,316.744 966.067,317.031L965.131,281.626C976.063,281.338 988.133,281.054 1001.21,280.81ZM1109.55,280.237C1121.27,280.339 1133.33,280.499 1145.68,280.729L1145.02,316.139C1132.79,315.912 1120.85,315.753 1109.24,315.653C1096.93,315.546 1084.99,315.504 1073.46,315.514L1073.43,280.097C1085.06,280.087 1097.12,280.129 1109.55,280.237ZM1217.93,282.831C1229.81,283.305 1241.85,283.852 1254.05,284.48L1252.23,319.85C1240.17,319.229 1228.26,318.689 1216.51,318.22C1204.41,317.736 1192.49,317.329 1180.78,316.989L1181.8,281.587C1193.64,281.931 1205.69,282.342 1217.93,282.831ZM1326.25,289.09C1338.2,290.008 1350.24,291.011 1362.32,292.108L1359.12,327.38C1347.2,326.298 1335.33,325.308 1323.54,324.403C1311.57,323.484 1299.68,322.653 1287.9,321.902L1290.15,286.557C1302.09,287.318 1314.13,288.16 1326.25,289.09ZM1430.08,334.901C1418.25,333.457 1406.43,332.115 1394.64,330.867L1398.36,295.647C1410.35,296.914 1422.35,298.279 1434.37,299.746L1430.08,334.901ZM1430.08,334.901L1434.37,299.746C1446.36,301.21 1458.35,302.777 1470.33,304.452L1465.42,339.527C1453.65,337.88 1441.86,336.34 1430.08,334.901ZM1542.03,315.908C1554,318.075 1565.91,320.368 1577.73,322.793L1570.62,357.487C1559.06,355.117 1547.42,352.877 1535.72,350.758C1524.08,348.651 1512.38,346.665 1500.64,344.793L1506.22,309.818C1518.2,311.729 1530.15,313.757 1542.03,315.908ZM1648.7,339.315C1660.59,342.441 1672.32,345.725 1683.88,349.176L1673.75,383.113C1662.56,379.772 1651.2,376.593 1639.69,373.566C1628.36,370.584 1616.88,367.752 1605.29,365.06L1613.3,330.561C1625.23,333.331 1637.04,336.246 1648.7,339.315ZM1853.6,416.937C1864.48,422.493 1875.25,428.266 1885.91,434.264L1868.54,465.13C1858.3,459.366 1847.94,453.819 1837.49,448.48C1827.02,443.133 1816.44,437.995 1805.78,433.059L1820.65,400.916C1831.73,406.045 1842.72,411.383 1853.6,416.937ZM1948.3,472.936C1958.39,479.817 1968.36,486.936 1978.19,494.3L1956.95,522.643C1947.55,515.597 1938.01,508.787 1928.35,502.202C1918.64,495.586 1908.81,489.199 1898.86,483.033L1917.51,452.925C1927.9,459.361 1938.16,466.029 1948.3,472.936ZM2034.94,541.042L2034.94,541.043C2043.98,549.23 2052.88,557.665 2061.62,566.358L2036.65,591.47C2028.3,583.172 2019.81,575.118 2011.17,567.303L2011.17,567.302C2002.45,559.411 1993.59,551.763 1984.59,544.35L2007.1,517.011C2016.53,524.772 2025.81,532.78 2034.94,541.042ZM2111.26,620.626C2119.04,629.977 2126.66,639.579 2134.12,649.438L2105.87,670.796C2098.75,661.379 2091.47,652.207 2084.04,643.275C2076.5,634.21 2068.8,625.391 2060.95,616.813L2087.09,592.908C2095.3,601.894 2103.37,611.13 2111.26,620.626ZM2175.71,710.012C2182.12,720.298 2188.36,730.824 2194.44,741.598L2163.59,758.996C2157.77,748.673 2151.79,738.587 2145.65,728.732C2139.39,718.685 2132.98,708.878 2126.41,699.306L2155.61,679.262C2162.47,689.265 2169.18,699.513 2175.71,710.012ZM2227.78,806.924C2232.82,817.889 2237.71,829.078 2242.44,840.497L2209.72,854.047C2205.16,843.056 2200.46,832.284 2195.6,821.729C2190.63,810.935 2185.51,800.367 2180.23,790.02L2211.78,773.931C2217.28,784.696 2222.61,795.693 2227.78,806.924ZM2267.94,909.075C2271.73,920.493 2275.37,932.115 2278.87,943.946L2244.9,953.975C2241.52,942.528 2237.99,931.282 2234.33,920.234C2230.57,908.918 2226.66,897.809 2222.61,886.905L2255.81,874.571C2260.01,885.86 2264.05,897.36 2267.94,909.075ZM2297.33,1014.56C2300.01,1026.26 2302.55,1038.14 2304.96,1050.21L2270.23,1057.14C2267.89,1045.4 2265.41,1033.85 2262.8,1022.48C2260.13,1010.82 2257.32,999.354 2254.38,988.074L2288.65,979.127C2291.68,990.747 2294.57,1002.56 2297.33,1014.56ZM2334.14,1339.16C2334.34,1351.11 2334.44,1363.2 2334.44,1375.42L2299.02,1375.41C2299.03,1363.39 2298.93,1351.51 2298.72,1339.77C2298.52,1327.76 2298.2,1315.89 2297.78,1304.15L2333.18,1302.89C2333.61,1314.84 2333.93,1326.93 2334.14,1339.16ZM2289.85,1552.93C2291.22,1540.25 2292.37,1528.4 2293.32,1517.51L2328.6,1520.6C2327.63,1531.71 2326.46,1543.8 2325.06,1556.74C2323.83,1568.12 2322.42,1580.16 2320.8,1592.79L2285.67,1588.29C2287.26,1575.9 2288.64,1564.09 2289.85,1552.93ZM2275.25,1658.74C2277.28,1646.67 2279.12,1634.93 2280.8,1623.57L2315.84,1628.75C2314.12,1640.33 2312.24,1652.3 2310.18,1664.6C2308.23,1676.23 2306.12,1688.15 2303.83,1700.34L2269.02,1693.8C2271.27,1681.84 2273.34,1670.15 2275.25,1658.74ZM2254.47,1763.47C2257.17,1751.72 2259.71,1740.12 2262.1,1728.71L2296.76,1735.95C2294.33,1747.6 2291.74,1759.43 2288.98,1771.43C2286.3,1783.06 2283.45,1794.84 2280.44,1806.74L2246.11,1798.05C2249.06,1786.39 2251.84,1774.86 2254.47,1763.47ZM2227.13,1866.57C2230.59,1855.11 2233.88,1843.72 2237,1832.42L2271.14,1841.87C2267.94,1853.44 2264.57,1865.09 2261.03,1876.8C2257.56,1888.32 2253.91,1899.89 2250.1,1911.5L2216.45,1900.45C2220.18,1889.11 2223.73,1877.8 2227.13,1866.57ZM2149.89,2064.57C2155.14,2053.96 2160.2,2043.3 2165.08,2032.6L2197.31,2047.29C2192.27,2058.33 2187.05,2069.33 2181.64,2080.27C2176.25,2091.16 2170.67,2102 2164.89,2112.75L2133.69,2096C2139.28,2085.59 2144.68,2075.11 2149.89,2064.57ZM2098.09,2156.96C2104.41,2147.02 2110.52,2136.97 2116.44,2126.82L2147.03,2144.67C2140.89,2155.2 2134.54,2165.63 2127.99,2175.95C2121.45,2186.25 2114.7,2196.44 2107.74,2206.5L2078.62,2186.34C2085.31,2176.67 2091.8,2166.87 2098.09,2156.96ZM2036.17,2242.45C2043.65,2233.41 2050.92,2224.21 2057.98,2214.87L2086.24,2236.23C2078.86,2245.99 2071.26,2255.6 2063.44,2265.04C2055.64,2274.47 2047.6,2283.73 2039.34,2292.81L2013.14,2268.98C2021.04,2260.3 2028.71,2251.46 2036.17,2242.45ZM1963.47,2318.45C1972.18,2310.62 1980.66,2302.58 1988.91,2294.35L2013.91,2319.43C2005.23,2328.09 1996.32,2336.54 1987.16,2344.78C1978.05,2352.98 1968.7,2360.97 1959.11,2368.72L1936.84,2341.18C1945.95,2333.82 1954.82,2326.24 1963.47,2318.45ZM912.155,318.618L911.231,283.214C916.058,283.088 922.05,282.901 929.111,282.682L930.212,318.081C923.081,318.303 917.03,318.491 912.155,318.618ZM1707.37,393.825L1718.77,360.293C1719.4,360.509 1720.04,360.726 1720.67,360.943C1731.57,364.675 1742.4,368.572 1753.17,372.64L1740.64,405.769C1730.23,401.832 1719.74,398.061 1709.2,394.449C1708.59,394.241 1707.98,394.033 1707.37,393.825ZM1740.65,405.77L1753.17,372.641C1764.58,376.954 1775.91,381.46 1787.15,386.166L1773.47,418.835C1762.61,414.289 1751.67,409.936 1740.65,405.77ZM2276.69,1092.02L2311.6,1086.03C2313.62,1097.84 2315.52,1109.83 2317.29,1121.99L2282.24,1127.08C2280.52,1115.22 2278.67,1103.54 2276.69,1092.02ZM2282.24,1127.08L2317.29,1121.99C2319.01,1133.84 2320.61,1145.86 2322.08,1158.05L2286.92,1162.3C2285.49,1150.39 2283.92,1138.66 2282.24,1127.08ZM2290.78,1197.63L2326.03,1194.19C2327.19,1206.1 2328.24,1218.17 2329.16,1230.39L2293.85,1233.07C2292.94,1221.1 2291.92,1209.29 2290.78,1197.63ZM2293.85,1233.07L2329.16,1230.39C2330.07,1242.32 2330.86,1254.4 2331.53,1266.63L2296.17,1268.58C2295.51,1256.6 2294.74,1244.76 2293.85,1233.07ZM2298.71,1411.06L2334.12,1411.66C2333.93,1423.02 2333.65,1434.5 2333.28,1446.09C2333.26,1446.66 2333.24,1447.27 2333.22,1447.91L2297.82,1446.7C2297.84,1446.08 2297.86,1445.5 2297.88,1444.95C2298.25,1433.54 2298.52,1422.25 2298.71,1411.06ZM2297.82,1446.7L2333.22,1447.91C2332.96,1455.5 2332.43,1467.9 2331.37,1484.35L2296.03,1482.07C2297.06,1466.1 2297.57,1454.07 2297.82,1446.7ZM2204.94,1934.03L2238.29,1945.94C2234.24,1957.31 2230,1968.69 2225.59,1980.08L2192.57,1967.28C2196.86,1956.19 2200.99,1945.1 2204.94,1934.03ZM2192.57,1967.28L2225.59,1980.08C2221.22,1991.36 2216.67,2002.63 2211.94,2013.88L2179.29,2000.15C2183.89,1989.21 2188.32,1978.25 2192.57,1967.28ZM1909.05,2362.43L1929.79,2391.15C1919.85,2398.32 1909.68,2405.25 1899.25,2411.93L1880.15,2382.11C1890.02,2375.79 1899.65,2369.22 1909.05,2362.43ZM1880.15,2382.11L1899.25,2411.93C1894.08,2415.24 1888.85,2418.49 1883.56,2421.68L1865.3,2391.33C1870.31,2388.32 1875.26,2385.24 1880.15,2382.11Z" style="fill:rgb(151,57,117);"/>
            </g>
        </g>
        <path d="M761.36,2143.28L748.526,2043.34L836.178,2093.04L761.36,2143.28Z" style="fill:rgb(58,51,117);"/>
        <path d="M1650.75,2366.86L1650.75,2366.86C1663.1,2367.86 1675.56,2368.8 1688.15,2369.68L1685.67,2405.01C1672.96,2404.12 1660.37,2403.17 1647.91,2402.17L1647.91,2402.17C1635.2,2401.14 1622.62,2400.06 1610.17,2398.93L1613.39,2363.66C1625.72,2364.78 1638.17,2365.85 1650.75,2366.86ZM1538.81,2356L1538.81,2356C1551.09,2357.4 1563.51,2358.75 1576.07,2360.04L1572.46,2395.27C1559.76,2393.97 1547.2,2392.61 1534.78,2391.18L1534.78,2391.18C1522.09,2389.73 1509.55,2388.22 1497.15,2386.64L1501.61,2351.51C1513.86,2353.07 1526.26,2354.56 1538.81,2356ZM1316.9,2321.56C1328.95,2323.99 1341.2,2326.35 1353.62,2328.64L1347.19,2363.47C1334.58,2361.14 1322.14,2358.74 1309.9,2356.28C1297.31,2353.74 1284.91,2351.13 1272.72,2348.45L1280.32,2313.86C1292.32,2316.49 1304.51,2319.06 1316.9,2321.56ZM1207.69,2296.46C1219.54,2299.55 1231.61,2302.57 1243.91,2305.51L1235.66,2339.95C1223.13,2336.95 1210.83,2333.88 1198.75,2330.73C1186.27,2327.47 1174.02,2324.14 1162.02,2320.73L1171.69,2286.66C1183.45,2290 1195.45,2293.27 1207.69,2296.46ZM1100.55,2264.59C1112.08,2268.49 1123.89,2272.32 1135.96,2276.06L1125.48,2309.89C1113.1,2306.05 1101.01,2302.13 1089.19,2298.13C1076.89,2293.96 1064.88,2289.71 1053.19,2285.37L1065.51,2252.16C1076.89,2256.39 1088.57,2260.53 1100.55,2264.59ZM996.852,2224.11C1007.85,2229.07 1019.21,2233.93 1030.91,2238.71L1017.54,2271.5C1005.43,2266.57 993.689,2261.53 982.31,2256.41C970.343,2251.02 958.776,2245.53 947.61,2239.94L963.455,2208.27C974.201,2213.64 985.334,2218.93 996.852,2224.11ZM899.322,2172.24C909.362,2178.61 919.88,2184.87 930.874,2191.03L913.567,2221.93C901.996,2215.45 890.927,2208.86 880.361,2202.16C869.082,2195.01 858.374,2187.74 848.238,2180.37L869.077,2151.73C878.62,2158.67 888.703,2165.51 899.322,2172.24ZM814.187,2104.7C822.266,2113.01 831.047,2121.2 840.523,2129.28L817.548,2156.24C807.203,2147.42 797.62,2138.46 788.8,2129.4C784.111,2124.58 779.636,2119.72 775.375,2114.84L802.066,2091.56C805.912,2095.97 809.953,2100.35 814.187,2104.7ZM1744.32,2373.21L1742.35,2408.57C1736.02,2408.22 1729.73,2407.85 1723.45,2407.48L1725.59,2372.12C1731.8,2372.5 1738.04,2372.86 1744.32,2373.21ZM1464.48,2346.56L1459.56,2381.63C1446.89,2379.86 1434.38,2378.02 1422.04,2376.11L1427.43,2341.11C1439.62,2342.99 1451.97,2344.8 1464.48,2346.56ZM1427.42,2341.11L1422.03,2376.11C1409.38,2374.16 1396.89,2372.15 1384.57,2370.07L1390.47,2335.15C1402.62,2337.2 1414.94,2339.19 1427.42,2341.11Z" style="fill:rgb(58,51,117);"/>
        <g transform="matrix(7.09719e-05,1.63957,-0.974729,4.2193e-05,2238.4,-301.474)">
            <path d="M406.333,1361.93C401.087,1217.27 687.546,574.267 932.012,987.813C1107.87,1285.3 1609.91,2419.06 1679.83,516.421C1681.75,464.41 1769.64,906.033 1734.03,1355.59" style="fill:none;stroke:rgb(189,105,161);stroke-width:26.26px;"/>
        </g>
        <g transform="matrix(0.0552457,0.998473,-0.998473,0.0552457,2072.46,-20.3131)">
            <g transform="matrix(0.604151,-0.79687,0.79687,0.604151,-712.86,829.06)">
                <text x="478.046px" y="1132.05px" style="font-family:'Arial-ItalicMT', 'Arial', sans-serif;font-style:italic;font-size:125px;fill:rgb(189,105,161);">P</text>
            </g>
            <g transform="matrix(0.65894,-0.752196,0.752196,0.65894,-621.431,760.852)">
                <text x="528.3px" y="1065.7px" style="font-family:'Arial-ItalicMT', 'Arial', sans-serif;font-style:italic;font-size:125px;fill:rgb(189,105,161);">a</text>
            </g>
            <g transform="matrix(0.712491,-0.701682,0.701682,0.712491,-546.072,694.295)">
                <text x="574.196px" y="1013.51px" style="font-family:'Arial-ItalicMT', 'Arial', sans-serif;font-style:italic;font-size:125px;fill:rgb(189,105,161);">r</text>
            </g>
            <g transform="matrix(0.760515,-0.64932,0.64932,0.760515,-494.101,627.351)">
                <text x="603.425px" y="983.509px" style="font-family:'Arial-ItalicMT', 'Arial', sans-serif;font-style:italic;font-size:125px;fill:rgb(189,105,161);">e</text>
            </g>
            <g transform="matrix(0.832294,-0.554334,0.554334,0.832294,-410.002,521.047)">
                <text x="656.132px" y="938.134px" style="font-family:'Arial-ItalicMT', 'Arial', sans-serif;font-style:italic;font-size:125px;fill:rgb(189,105,161);">n</text>
            </g>
            <g transform="matrix(0.895875,-0.444306,0.444306,0.895875,-325.558,411.057)">
                <text x="714.222px" y="900.115px" style="font-family:'Arial-ItalicMT', 'Arial', sans-serif;font-style:italic;font-size:125px;fill:rgb(189,105,161);">t</text>
            </g>
            <g transform="matrix(0.981887,-0.189466,0.189466,0.981887,-150.386,162.891)">
                <text x="776.76px" y="867.992px" style="font-family:'Arial-ItalicMT', 'Arial', sans-serif;font-style:italic;font-size:125px;fill:rgb(189,105,161);">H</text>
            </g>
        </g>
        <g transform="matrix(1,0,0,1,-487.726,-86.2974)">
            <text x="1239.25px" y="274.827px" style="font-family:'Arial-BoldMT', 'Arial', sans-serif;font-weight:700;font-size:200px;fill:rgb(151,57,117);">O</text>
            <g transform="matrix(125,0,0,125,1485.09,274.827)">
            </g>
            <text x="1394.82px" y="274.827px" style="font-family:'Arial-BoldMT', 'Arial', sans-serif;font-weight:700;font-size:125px;fill:rgb(151,57,117);">H</text>
        </g>
        <g transform="matrix(1,0,0,1,536.454,2464.35)">
            <text x="1239.25px" y="274.827px" style="font-family:'Arial-BoldMT', 'Arial', sans-serif;font-weight:700;font-size:200px;fill:rgb(58,51,117);">O</text>
            <g transform="matrix(125,0,0,125,1471.17,274.827)">
            </g>
            <text x="1394.82px" y="274.827px" style="font-family:'Arial-BoldMT', 'Arial', sans-serif;font-weight:700;font-size:125px;fill:rgb(58,51,117);">L</text>
        </g>
    </g>
    <ellipse cx="1839.02" cy="2441.95" rx="141.06" ry="130.619" style="fill:rgb(136,136,136);fill-opacity:0.5;"/>
    <path d="M1831.63,2318.81L1830.9,2304.24C1833.59,2304.11 1836.3,2304.04 1839.02,2304.04C1841.75,2304.04 1844.46,2304.11 1847.15,2304.24L1846.42,2318.81C1843.97,2318.69 1841.51,2318.62 1839.02,2318.62C1836.54,2318.62 1834.08,2318.69 1831.63,2318.81ZM1861.12,2320.3L1863.33,2305.89C1868.75,2306.72 1874.06,2307.82 1879.26,2309.18L1875.57,2323.29C1870.85,2322.06 1866.03,2321.06 1861.12,2320.3ZM1903.12,2333.7L1909.69,2320.68C1914.58,2323.15 1919.3,2325.87 1923.83,2328.81L1915.89,2341.04C1911.8,2338.38 1907.53,2335.93 1903.12,2333.7ZM1927.78,2349.72L1937.01,2338.43C1941.25,2341.9 1945.27,2345.59 1949.05,2349.48L1938.6,2359.65C1935.2,2356.15 1931.58,2352.84 1927.78,2349.72ZM1956.43,2382.85L1968.97,2375.4C1971.77,2380.11 1974.28,2384.98 1976.47,2390L1963.12,2395.85C1961.16,2391.38 1958.92,2387.04 1956.43,2382.85ZM1968.12,2409.56L1982.11,2405.43C1983.65,2410.66 1984.87,2416.02 1985.75,2421.47L1971.35,2423.78C1970.57,2418.95 1969.49,2414.2 1968.12,2409.56ZM1972.27,2452.89L1986.79,2454.27C1986.27,2459.78 1985.39,2465.2 1984.18,2470.51L1969.96,2467.28C1971.03,2462.58 1971.81,2457.77 1972.27,2452.89ZM1965.84,2481.28L1979.54,2486.28C1977.65,2491.44 1975.45,2496.46 1972.95,2501.32L1959.98,2494.65C1962.2,2490.33 1964.16,2485.86 1965.84,2481.28ZM1943.57,2518.85L1954.59,2528.4C1951.03,2532.51 1947.22,2536.42 1943.19,2540.12L1933.33,2529.37C1936.95,2526.05 1940.37,2522.54 1943.57,2518.85ZM1921.95,2538.69L1930.55,2550.47C1926.18,2553.66 1921.62,2556.62 1916.87,2559.35L1909.61,2546.7C1913.89,2544.24 1918.01,2541.57 1921.95,2538.69ZM1882.66,2558.56L1887.09,2572.45C1881.96,2574.09 1876.7,2575.47 1871.34,2576.58L1868.38,2562.3C1873.25,2561.29 1878.01,2560.04 1882.66,2558.56ZM1853.79,2564.54L1855.26,2579.05C1849.93,2579.59 1844.51,2579.86 1839.02,2579.86L1839.02,2565.28C1844.01,2565.28 1848.94,2565.03 1853.79,2564.54ZM1809.66,2562.3L1806.71,2576.58C1801.35,2575.47 1796.09,2574.09 1790.96,2572.45L1795.39,2558.56C1800.04,2560.04 1804.8,2561.29 1809.66,2562.3ZM1781.59,2553.35L1775.73,2566.7C1770.72,2564.5 1765.86,2562.04 1761.18,2559.35L1768.44,2546.71C1772.67,2549.14 1777.07,2551.36 1781.59,2553.35ZM1744.72,2529.37L1734.86,2540.12C1730.83,2536.42 1727.02,2532.51 1723.46,2528.4L1734.48,2518.85C1737.67,2522.54 1741.09,2526.05 1744.72,2529.37ZM1725.54,2507.23L1713.48,2515.42C1710.4,2510.89 1707.6,2506.19 1705.1,2501.32L1718.07,2494.65C1720.3,2498.99 1722.8,2503.19 1725.54,2507.23ZM1708.09,2467.28L1693.86,2470.51C1692.66,2465.2 1691.78,2459.78 1691.26,2454.27L1705.78,2452.89C1706.24,2457.77 1707.02,2462.58 1708.09,2467.28ZM1705.31,2438.3L1690.74,2437.84C1690.91,2432.3 1691.44,2426.84 1692.3,2421.47L1706.7,2423.78C1705.94,2428.54 1705.47,2433.39 1705.31,2438.3ZM1714.93,2395.85L1701.58,2390C1703.77,2384.98 1706.28,2380.11 1709.08,2375.4L1721.62,2382.85C1719.12,2387.04 1716.89,2391.38 1714.93,2395.85ZM1729.84,2370.73L1718.28,2361.84C1721.6,2357.53 1725.18,2353.4 1729,2349.48L1739.45,2359.65C1736.02,2363.17 1732.81,2366.87 1729.84,2370.73ZM1762.16,2341.04L1754.22,2328.81C1758.75,2325.87 1763.47,2323.15 1768.35,2320.68L1774.93,2333.7C1770.51,2335.93 1766.25,2338.38 1762.16,2341.04ZM1788.42,2327.77L1783.27,2314.13C1788.31,2312.22 1793.49,2310.57 1798.79,2309.18L1802.48,2323.29C1797.68,2324.55 1792.99,2326.05 1788.42,2327.77Z" style="fill:rgb(111,111,111);"/>
    <g transform="matrix(1,0,0,1,-1078.79,-375.803)">
        <ellipse cx="1839.02" cy="2441.95" rx="141.06" ry="130.619" style="fill:rgb(136,136,136);fill-opacity:0.5;"/>
        <path d="M1831.63,2318.81L1830.9,2304.24C1833.59,2304.11 1836.3,2304.04 1839.02,2304.04C1841.75,2304.04 1844.46,2304.11 1847.15,2304.24L1846.42,2318.81C1843.97,2318.69 1841.51,2318.62 1839.02,2318.62C1836.54,2318.62 1834.08,2318.69 1831.63,2318.81ZM1861.12,2320.3L1863.33,2305.89C1868.75,2306.72 1874.06,2307.82 1879.26,2309.18L1875.57,2323.29C1870.85,2322.06 1866.03,2321.06 1861.12,2320.3ZM1903.12,2333.7L1909.69,2320.68C1914.58,2323.15 1919.3,2325.87 1923.83,2328.81L1915.89,2341.04C1911.8,2338.38 1907.53,2335.93 1903.12,2333.7ZM1927.78,2349.72L1937.01,2338.43C1941.25,2341.9 1945.27,2345.59 1949.05,2349.48L1938.6,2359.65C1935.2,2356.15 1931.58,2352.84 1927.78,2349.72ZM1956.43,2382.85L1968.97,2375.4C1971.77,2380.11 1974.28,2384.98 1976.47,2390L1963.12,2395.85C1961.16,2391.38 1958.92,2387.04 1956.43,2382.85ZM1968.12,2409.56L1982.11,2405.43C1983.65,2410.66 1984.87,2416.02 1985.75,2421.47L1971.35,2423.78C1970.57,2418.95 1969.49,2414.2 1968.12,2409.56ZM1972.27,2452.89L1986.79,2454.27C1986.27,2459.78 1985.39,2465.2 1984.18,2470.51L1969.96,2467.28C1971.03,2462.58 1971.81,2457.77 1972.27,2452.89ZM1965.84,2481.28L1979.54,2486.28C1977.65,2491.44 1975.45,2496.46 1972.95,2501.32L1959.98,2494.65C1962.2,2490.33 1964.16,2485.86 1965.84,2481.28ZM1943.57,2518.85L1954.59,2528.4C1951.03,2532.51 1947.22,2536.42 1943.19,2540.12L1933.33,2529.37C1936.95,2526.05 1940.37,2522.54 1943.57,2518.85ZM1921.95,2538.69L1930.55,2550.47C1926.18,2553.66 1921.62,2556.62 1916.87,2559.35L1909.61,2546.7C1913.89,2544.24 1918.01,2541.57 1921.95,2538.69ZM1882.66,2558.56L1887.09,2572.45C1881.96,2574.09 1876.7,2575.47 1871.34,2576.58L1868.38,2562.3C1873.25,2561.29 1878.01,2560.04 1882.66,2558.56ZM1853.79,2564.54L1855.26,2579.05C1849.93,2579.59 1844.51,2579.86 1839.02,2579.86L1839.02,2565.28C1844.01,2565.28 1848.94,2565.03 1853.79,2564.54ZM1809.66,2562.3L1806.71,2576.58C1801.35,2575.47 1796.09,2574.09 1790.96,2572.45L1795.39,2558.56C1800.04,2560.04 1804.8,2561.29 1809.66,2562.3ZM1781.59,2553.35L1775.73,2566.7C1770.72,2564.5 1765.86,2562.04 1761.18,2559.35L1768.44,2546.71C1772.67,2549.14 1777.07,2551.36 1781.59,2553.35ZM1744.72,2529.37L1734.86,2540.12C1730.83,2536.42 1727.02,2532.51 1723.46,2528.4L1734.48,2518.85C1737.67,2522.54 1741.09,2526.05 1744.72,2529.37ZM1725.54,2507.23L1713.48,2515.42C1710.4,2510.89 1707.6,2506.19 1705.1,2501.32L1718.07,2494.65C1720.3,2498.99 1722.8,2503.19 1725.54,2507.23ZM1708.09,2467.28L1693.86,2470.51C1692.66,2465.2 1691.78,2459.78 1691.26,2454.27L1705.78,2452.89C1706.24,2457.77 1707.02,2462.58 1708.09,2467.28ZM1705.31,2438.3L1690.74,2437.84C1690.91,2432.3 1691.44,2426.84 1692.3,2421.47L1706.7,2423.78C1705.94,2428.54 1705.47,2433.39 1705.31,2438.3ZM1714.93,2395.85L1701.58,2390C1703.77,2384.98 1706.28,2380.11 1709.08,2375.4L1721.62,2382.85C1719.12,2387.04 1716.89,2391.38 1714.93,2395.85ZM1729.84,2370.73L1718.28,2361.84C1721.6,2357.53 1725.18,2353.4 1729,2349.48L1739.45,2359.65C1736.02,2363.17 1732.81,2366.87 1729.84,2370.73ZM1762.16,2341.04L1754.22,2328.81C1758.75,2325.87 1763.47,2323.15 1768.35,2320.68L1774.93,2333.7C1770.51,2335.93 1766.25,2338.38 1762.16,2341.04ZM1788.42,2327.77L1783.27,2314.13C1788.31,2312.22 1793.49,2310.57 1798.79,2309.18L1802.48,2323.29C1797.68,2324.55 1792.99,2326.05 1788.42,2327.77Z" style="fill:rgb(111,111,111);"/>
    </g>
    <g transform="matrix(1,0,0,1,-198.605,502.538)">
        <g transform="matrix(200,0,0,200,1621.12,1683.33)">
        </g>
        <text x="1204.32px" y="1683.33px" style="font-family:'Arial-BoldMT', 'Arial', sans-serif;font-weight:700;font-size:200px;fill:rgb(151,151,151);">G&gt;A</text>
    </g>
    <g transform="matrix(1,0,0,1,532.059,365.34)">
        <g transform="matrix(200,0,0,200,1587.72,1683.33)">
        </g>
        <text x="1204.32px" y="1683.33px" style="font-family:'Arial-BoldMT', 'Arial', sans-serif;font-weight:700;font-size:200px;fill:rgb(151,151,151);">T&gt;C</text>
    </g>
    <g transform="matrix(1,0,0,1,656.968,-354.043)">
        <g transform="matrix(200,0,0,200,1587.72,1683.33)">
        </g>
        <text x="1204.32px" y="1683.33px" style="font-family:'Arial-BoldMT', 'Arial', sans-serif;font-weight:700;font-size:200px;fill:rgb(151,151,151);">A&gt;T</text>
    </g>
    <g transform="matrix(1,0,0,1,389.505,-895.224)">
        <g transform="matrix(200,0,0,200,1598.85,1683.33)">
        </g>
        <text x="1204.32px" y="1683.33px" style="font-family:'Arial-BoldMT', 'Arial', sans-serif;font-weight:700;font-size:200px;fill:rgb(151,151,151);">G&gt;T</text>
    </g>
</svg>
